<?xml version="1.0" encoding="UTF-8" standalone="no"?>
<svg
   xmlns:dc="http://purl.org/dc/elements/1.1/"
   xmlns:cc="http://creativecommons.org/ns#"
   xmlns:rdf="http://www.w3.org/1999/02/22-rdf-syntax-ns#"
   xmlns:svg="http://www.w3.org/2000/svg"
   xmlns="http://www.w3.org/2000/svg"
   xmlns:xlink="http://www.w3.org/1999/xlink"
   xmlns:sodipodi="http://sodipodi.sourceforge.net/DTD/sodipodi-0.dtd"
   xmlns:inkscape="http://www.inkscape.org/namespaces/inkscape"
   sodipodi:docname="ch1-Z-G-11.svg"
   inkscape:version="1.0 (4035a4fb49, 2020-05-01)"
   id="svg1043"
   version="1.1"
   viewBox="0 0 210 297"
   height="297mm"
   width="210mm">
  <defs
     id="defs1037">
    <inkscape:path-effect
       effect="bspline"
       id="path-effect2484"
       is_visible="true"
       lpeversion="1"
       weight="33.333333"
       steps="2"
       helper_size="0"
       apply_no_weight="true"
       apply_with_weight="true"
       only_selected="false" />
    <g
       id="g9827">
      <symbol
         id="symbol699"
         overflow="visible">
        <path
           id="path6755"
           d=""
           style="stroke:none;" />
      </symbol>
      <symbol
         id="symbol7364"
         overflow="visible">
        <path
           id="path9094"
           d="M 2.328125 -4.4375 C 2.328125 -4.625 2.328125 -4.625 2.125 -4.625 C 1.671875 -4.1875 1.046875 -4.1875 0.765625 -4.1875 L 0.765625 -3.9375 C 0.921875 -3.9375 1.390625 -3.9375 1.765625 -4.125 L 1.765625 -0.578125 C 1.765625 -0.34375 1.765625 -0.25 1.078125 -0.25 L 0.8125 -0.25 L 0.8125 0 C 0.9375 0 1.796875 -0.03125 2.046875 -0.03125 C 2.265625 -0.03125 3.140625 0 3.296875 0 L 3.296875 -0.25 L 3.03125 -0.25 C 2.328125 -0.25 2.328125 -0.34375 2.328125 -0.578125 Z M 2.328125 -4.4375 "
           style="stroke:none;" />
      </symbol>
    </g>
    <g
       id="g1219">
      <symbol
         id="symbol6303"
         overflow="visible">
        <path
           id="path4952"
           d=""
           style="stroke:none;" />
      </symbol>
      <symbol
         id="symbol3022"
         overflow="visible">
        <path
           id="path8434"
           d="M 2.328125 -4.4375 C 2.328125 -4.625 2.328125 -4.625 2.125 -4.625 C 1.671875 -4.1875 1.046875 -4.1875 0.765625 -4.1875 L 0.765625 -3.9375 C 0.921875 -3.9375 1.390625 -3.9375 1.765625 -4.125 L 1.765625 -0.578125 C 1.765625 -0.34375 1.765625 -0.25 1.078125 -0.25 L 0.8125 -0.25 L 0.8125 0 C 0.9375 0 1.796875 -0.03125 2.046875 -0.03125 C 2.265625 -0.03125 3.140625 0 3.296875 0 L 3.296875 -0.25 L 3.03125 -0.25 C 2.328125 -0.25 2.328125 -0.34375 2.328125 -0.578125 Z M 2.328125 -4.4375 "
           style="stroke:none;" />
      </symbol>
      <symbol
         id="symbol2777"
         overflow="visible">
        <path
           id="path1295"
           d="M 3.515625 -1.265625 L 3.28125 -1.265625 C 3.265625 -1.109375 3.1875 -0.703125 3.09375 -0.640625 C 3.046875 -0.59375 2.515625 -0.59375 2.40625 -0.59375 L 1.125 -0.59375 C 1.859375 -1.234375 2.109375 -1.4375 2.515625 -1.765625 C 3.03125 -2.171875 3.515625 -2.609375 3.515625 -3.265625 C 3.515625 -4.109375 2.78125 -4.625 1.890625 -4.625 C 1.03125 -4.625 0.4375 -4.015625 0.4375 -3.375 C 0.4375 -3.03125 0.734375 -2.984375 0.8125 -2.984375 C 0.96875 -2.984375 1.171875 -3.109375 1.171875 -3.359375 C 1.171875 -3.484375 1.125 -3.734375 0.765625 -3.734375 C 0.984375 -4.21875 1.453125 -4.375 1.78125 -4.375 C 2.484375 -4.375 2.84375 -3.828125 2.84375 -3.265625 C 2.84375 -2.65625 2.40625 -2.1875 2.1875 -1.9375 L 0.515625 -0.265625 C 0.4375 -0.203125 0.4375 -0.1875 0.4375 0 L 3.3125 0 Z M 3.515625 -1.265625 "
           style="stroke:none;" />
      </symbol>
    </g>
    <g
       id="g5822">
      <symbol
         id="symbol616"
         overflow="visible">
        <path
           id="path5391"
           d=""
           style="stroke:none;" />
      </symbol>
      <symbol
         id="symbol4800"
         overflow="visible">
        <path
           id="path904"
           d="M 3.515625 -1.265625 L 3.28125 -1.265625 C 3.265625 -1.109375 3.1875 -0.703125 3.09375 -0.640625 C 3.046875 -0.59375 2.515625 -0.59375 2.40625 -0.59375 L 1.125 -0.59375 C 1.859375 -1.234375 2.109375 -1.4375 2.515625 -1.765625 C 3.03125 -2.171875 3.515625 -2.609375 3.515625 -3.265625 C 3.515625 -4.109375 2.78125 -4.625 1.890625 -4.625 C 1.03125 -4.625 0.4375 -4.015625 0.4375 -3.375 C 0.4375 -3.03125 0.734375 -2.984375 0.8125 -2.984375 C 0.96875 -2.984375 1.171875 -3.109375 1.171875 -3.359375 C 1.171875 -3.484375 1.125 -3.734375 0.765625 -3.734375 C 0.984375 -4.21875 1.453125 -4.375 1.78125 -4.375 C 2.484375 -4.375 2.84375 -3.828125 2.84375 -3.265625 C 2.84375 -2.65625 2.40625 -2.1875 2.1875 -1.9375 L 0.515625 -0.265625 C 0.4375 -0.203125 0.4375 -0.1875 0.4375 0 L 3.3125 0 Z M 3.515625 -1.265625 "
           style="stroke:none;" />
      </symbol>
      <symbol
         id="symbol100"
         overflow="visible">
        <path
           id="path2451"
           d="M 2.328125 -4.4375 C 2.328125 -4.625 2.328125 -4.625 2.125 -4.625 C 1.671875 -4.1875 1.046875 -4.1875 0.765625 -4.1875 L 0.765625 -3.9375 C 0.921875 -3.9375 1.390625 -3.9375 1.765625 -4.125 L 1.765625 -0.578125 C 1.765625 -0.34375 1.765625 -0.25 1.078125 -0.25 L 0.8125 -0.25 L 0.8125 0 C 0.9375 0 1.796875 -0.03125 2.046875 -0.03125 C 2.265625 -0.03125 3.140625 0 3.296875 0 L 3.296875 -0.25 L 3.03125 -0.25 C 2.328125 -0.25 2.328125 -0.34375 2.328125 -0.578125 Z M 2.328125 -4.4375 "
           style="stroke:none;" />
      </symbol>
    </g>
    <g
       id="g3250">
      <symbol
         id="symbol2870"
         overflow="visible">
        <path
           id="path9052"
           d=""
           style="stroke:none;" />
      </symbol>
      <symbol
         id="symbol2595"
         overflow="visible">
        <path
           id="path2256"
           d="M 2.328125 -4.4375 C 2.328125 -4.625 2.328125 -4.625 2.125 -4.625 C 1.671875 -4.1875 1.046875 -4.1875 0.765625 -4.1875 L 0.765625 -3.9375 C 0.921875 -3.9375 1.390625 -3.9375 1.765625 -4.125 L 1.765625 -0.578125 C 1.765625 -0.34375 1.765625 -0.25 1.078125 -0.25 L 0.8125 -0.25 L 0.8125 0 C 0.9375 0 1.796875 -0.03125 2.046875 -0.03125 C 2.265625 -0.03125 3.140625 0 3.296875 0 L 3.296875 -0.25 L 3.03125 -0.25 C 2.328125 -0.25 2.328125 -0.34375 2.328125 -0.578125 Z M 2.328125 -4.4375 "
           style="stroke:none;" />
      </symbol>
      <symbol
         id="symbol4002"
         overflow="visible">
        <path
           id="path1021"
           d="M 1.90625 -2.328125 C 2.453125 -2.328125 2.84375 -1.953125 2.84375 -1.203125 C 2.84375 -0.34375 2.328125 -0.078125 1.9375 -0.078125 C 1.65625 -0.078125 1.03125 -0.15625 0.75 -0.578125 C 1.078125 -0.578125 1.15625 -0.8125 1.15625 -0.96875 C 1.15625 -1.1875 0.984375 -1.34375 0.765625 -1.34375 C 0.578125 -1.34375 0.375 -1.21875 0.375 -0.9375 C 0.375 -0.28125 1.09375 0.140625 1.9375 0.140625 C 2.90625 0.140625 3.578125 -0.515625 3.578125 -1.203125 C 3.578125 -1.75 3.140625 -2.296875 2.375 -2.453125 C 3.09375 -2.71875 3.359375 -3.234375 3.359375 -3.671875 C 3.359375 -4.21875 2.734375 -4.625 1.953125 -4.625 C 1.1875 -4.625 0.59375 -4.25 0.59375 -3.6875 C 0.59375 -3.453125 0.75 -3.328125 0.953125 -3.328125 C 1.171875 -3.328125 1.3125 -3.484375 1.3125 -3.671875 C 1.3125 -3.875 1.171875 -4.03125 0.953125 -4.046875 C 1.203125 -4.34375 1.671875 -4.421875 1.9375 -4.421875 C 2.25 -4.421875 2.6875 -4.265625 2.6875 -3.671875 C 2.6875 -3.375 2.59375 -3.046875 2.40625 -2.84375 C 2.1875 -2.578125 1.984375 -2.5625 1.640625 -2.53125 C 1.46875 -2.515625 1.453125 -2.515625 1.421875 -2.515625 C 1.40625 -2.515625 1.34375 -2.5 1.34375 -2.421875 C 1.34375 -2.328125 1.40625 -2.328125 1.53125 -2.328125 Z M 1.90625 -2.328125 "
           style="stroke:none;" />
      </symbol>
    </g>
    <g
       id="g4845">
      <symbol
         id="symbol1308"
         overflow="visible">
        <path
           id="path6800"
           d=""
           style="stroke:none;" />
      </symbol>
      <symbol
         id="symbol7740"
         overflow="visible">
        <path
           id="path908"
           d="M 3.515625 -1.265625 L 3.28125 -1.265625 C 3.265625 -1.109375 3.1875 -0.703125 3.09375 -0.640625 C 3.046875 -0.59375 2.515625 -0.59375 2.40625 -0.59375 L 1.125 -0.59375 C 1.859375 -1.234375 2.109375 -1.4375 2.515625 -1.765625 C 3.03125 -2.171875 3.515625 -2.609375 3.515625 -3.265625 C 3.515625 -4.109375 2.78125 -4.625 1.890625 -4.625 C 1.03125 -4.625 0.4375 -4.015625 0.4375 -3.375 C 0.4375 -3.03125 0.734375 -2.984375 0.8125 -2.984375 C 0.96875 -2.984375 1.171875 -3.109375 1.171875 -3.359375 C 1.171875 -3.484375 1.125 -3.734375 0.765625 -3.734375 C 0.984375 -4.21875 1.453125 -4.375 1.78125 -4.375 C 2.484375 -4.375 2.84375 -3.828125 2.84375 -3.265625 C 2.84375 -2.65625 2.40625 -2.1875 2.1875 -1.9375 L 0.515625 -0.265625 C 0.4375 -0.203125 0.4375 -0.1875 0.4375 0 L 3.3125 0 Z M 3.515625 -1.265625 "
           style="stroke:none;" />
      </symbol>
      <symbol
         id="symbol6377"
         overflow="visible">
        <path
           id="path1514"
           d="M 1.90625 -2.328125 C 2.453125 -2.328125 2.84375 -1.953125 2.84375 -1.203125 C 2.84375 -0.34375 2.328125 -0.078125 1.9375 -0.078125 C 1.65625 -0.078125 1.03125 -0.15625 0.75 -0.578125 C 1.078125 -0.578125 1.15625 -0.8125 1.15625 -0.96875 C 1.15625 -1.1875 0.984375 -1.34375 0.765625 -1.34375 C 0.578125 -1.34375 0.375 -1.21875 0.375 -0.9375 C 0.375 -0.28125 1.09375 0.140625 1.9375 0.140625 C 2.90625 0.140625 3.578125 -0.515625 3.578125 -1.203125 C 3.578125 -1.75 3.140625 -2.296875 2.375 -2.453125 C 3.09375 -2.71875 3.359375 -3.234375 3.359375 -3.671875 C 3.359375 -4.21875 2.734375 -4.625 1.953125 -4.625 C 1.1875 -4.625 0.59375 -4.25 0.59375 -3.6875 C 0.59375 -3.453125 0.75 -3.328125 0.953125 -3.328125 C 1.171875 -3.328125 1.3125 -3.484375 1.3125 -3.671875 C 1.3125 -3.875 1.171875 -4.03125 0.953125 -4.046875 C 1.203125 -4.34375 1.671875 -4.421875 1.9375 -4.421875 C 2.25 -4.421875 2.6875 -4.265625 2.6875 -3.671875 C 2.6875 -3.375 2.59375 -3.046875 2.40625 -2.84375 C 2.1875 -2.578125 1.984375 -2.5625 1.640625 -2.53125 C 1.46875 -2.515625 1.453125 -2.515625 1.421875 -2.515625 C 1.40625 -2.515625 1.34375 -2.5 1.34375 -2.421875 C 1.34375 -2.328125 1.40625 -2.328125 1.53125 -2.328125 Z M 1.90625 -2.328125 "
           style="stroke:none;" />
      </symbol>
    </g>
    <g
       id="g3402">
      <symbol
         id="symbol8300"
         overflow="visible">
        <path
           id="path9772"
           d=""
           style="stroke:none;" />
      </symbol>
      <symbol
         id="symbol2231"
         overflow="visible">
        <path
           id="path3147"
           d="M 1.90625 -2.328125 C 2.453125 -2.328125 2.84375 -1.953125 2.84375 -1.203125 C 2.84375 -0.34375 2.328125 -0.078125 1.9375 -0.078125 C 1.65625 -0.078125 1.03125 -0.15625 0.75 -0.578125 C 1.078125 -0.578125 1.15625 -0.8125 1.15625 -0.96875 C 1.15625 -1.1875 0.984375 -1.34375 0.765625 -1.34375 C 0.578125 -1.34375 0.375 -1.21875 0.375 -0.9375 C 0.375 -0.28125 1.09375 0.140625 1.9375 0.140625 C 2.90625 0.140625 3.578125 -0.515625 3.578125 -1.203125 C 3.578125 -1.75 3.140625 -2.296875 2.375 -2.453125 C 3.09375 -2.71875 3.359375 -3.234375 3.359375 -3.671875 C 3.359375 -4.21875 2.734375 -4.625 1.953125 -4.625 C 1.1875 -4.625 0.59375 -4.25 0.59375 -3.6875 C 0.59375 -3.453125 0.75 -3.328125 0.953125 -3.328125 C 1.171875 -3.328125 1.3125 -3.484375 1.3125 -3.671875 C 1.3125 -3.875 1.171875 -4.03125 0.953125 -4.046875 C 1.203125 -4.34375 1.671875 -4.421875 1.9375 -4.421875 C 2.25 -4.421875 2.6875 -4.265625 2.6875 -3.671875 C 2.6875 -3.375 2.59375 -3.046875 2.40625 -2.84375 C 2.1875 -2.578125 1.984375 -2.5625 1.640625 -2.53125 C 1.46875 -2.515625 1.453125 -2.515625 1.421875 -2.515625 C 1.40625 -2.515625 1.34375 -2.5 1.34375 -2.421875 C 1.34375 -2.328125 1.40625 -2.328125 1.53125 -2.328125 Z M 1.90625 -2.328125 "
           style="stroke:none;" />
      </symbol>
      <symbol
         id="symbol9844"
         overflow="visible">
        <path
           id="path182"
           d="M 3.515625 -1.265625 L 3.28125 -1.265625 C 3.265625 -1.109375 3.1875 -0.703125 3.09375 -0.640625 C 3.046875 -0.59375 2.515625 -0.59375 2.40625 -0.59375 L 1.125 -0.59375 C 1.859375 -1.234375 2.109375 -1.4375 2.515625 -1.765625 C 3.03125 -2.171875 3.515625 -2.609375 3.515625 -3.265625 C 3.515625 -4.109375 2.78125 -4.625 1.890625 -4.625 C 1.03125 -4.625 0.4375 -4.015625 0.4375 -3.375 C 0.4375 -3.03125 0.734375 -2.984375 0.8125 -2.984375 C 0.96875 -2.984375 1.171875 -3.109375 1.171875 -3.359375 C 1.171875 -3.484375 1.125 -3.734375 0.765625 -3.734375 C 0.984375 -4.21875 1.453125 -4.375 1.78125 -4.375 C 2.484375 -4.375 2.84375 -3.828125 2.84375 -3.265625 C 2.84375 -2.65625 2.40625 -2.1875 2.1875 -1.9375 L 0.515625 -0.265625 C 0.4375 -0.203125 0.4375 -0.1875 0.4375 0 L 3.3125 0 Z M 3.515625 -1.265625 "
           style="stroke:none;" />
      </symbol>
    </g>
    <g
       id="g6283">
      <symbol
         id="symbol7839"
         overflow="visible">
        <path
           id="path814"
           d=""
           style="stroke:none;" />
      </symbol>
      <symbol
         id="symbol4075"
         overflow="visible">
        <path
           id="path3030"
           d="M 1.90625 -2.328125 C 2.453125 -2.328125 2.84375 -1.953125 2.84375 -1.203125 C 2.84375 -0.34375 2.328125 -0.078125 1.9375 -0.078125 C 1.65625 -0.078125 1.03125 -0.15625 0.75 -0.578125 C 1.078125 -0.578125 1.15625 -0.8125 1.15625 -0.96875 C 1.15625 -1.1875 0.984375 -1.34375 0.765625 -1.34375 C 0.578125 -1.34375 0.375 -1.21875 0.375 -0.9375 C 0.375 -0.28125 1.09375 0.140625 1.9375 0.140625 C 2.90625 0.140625 3.578125 -0.515625 3.578125 -1.203125 C 3.578125 -1.75 3.140625 -2.296875 2.375 -2.453125 C 3.09375 -2.71875 3.359375 -3.234375 3.359375 -3.671875 C 3.359375 -4.21875 2.734375 -4.625 1.953125 -4.625 C 1.1875 -4.625 0.59375 -4.25 0.59375 -3.6875 C 0.59375 -3.453125 0.75 -3.328125 0.953125 -3.328125 C 1.171875 -3.328125 1.3125 -3.484375 1.3125 -3.671875 C 1.3125 -3.875 1.171875 -4.03125 0.953125 -4.046875 C 1.203125 -4.34375 1.671875 -4.421875 1.9375 -4.421875 C 2.25 -4.421875 2.6875 -4.265625 2.6875 -3.671875 C 2.6875 -3.375 2.59375 -3.046875 2.40625 -2.84375 C 2.1875 -2.578125 1.984375 -2.5625 1.640625 -2.53125 C 1.46875 -2.515625 1.453125 -2.515625 1.421875 -2.515625 C 1.40625 -2.515625 1.34375 -2.5 1.34375 -2.421875 C 1.34375 -2.328125 1.40625 -2.328125 1.53125 -2.328125 Z M 1.90625 -2.328125 "
           style="stroke:none;" />
      </symbol>
      <symbol
         id="symbol3880"
         overflow="visible">
        <path
           id="path3366"
           d="M 2.328125 -4.4375 C 2.328125 -4.625 2.328125 -4.625 2.125 -4.625 C 1.671875 -4.1875 1.046875 -4.1875 0.765625 -4.1875 L 0.765625 -3.9375 C 0.921875 -3.9375 1.390625 -3.9375 1.765625 -4.125 L 1.765625 -0.578125 C 1.765625 -0.34375 1.765625 -0.25 1.078125 -0.25 L 0.8125 -0.25 L 0.8125 0 C 0.9375 0 1.796875 -0.03125 2.046875 -0.03125 C 2.265625 -0.03125 3.140625 0 3.296875 0 L 3.296875 -0.25 L 3.03125 -0.25 C 2.328125 -0.25 2.328125 -0.34375 2.328125 -0.578125 Z M 2.328125 -4.4375 "
           style="stroke:none;" />
      </symbol>
    </g>
    <g
       id="g2791">
      <symbol
         overflow="visible"
         id="symbol4094">
        <path
           style="stroke:none;"
           d=""
           id="path1729" />
      </symbol>
      <symbol
         overflow="visible"
         id="symbol4340">
        <path
           style="stroke:none;"
           d="M 2.328125 -4.4375 C 2.328125 -4.625 2.328125 -4.625 2.125 -4.625 C 1.671875 -4.1875 1.046875 -4.1875 0.765625 -4.1875 L 0.765625 -3.9375 C 0.921875 -3.9375 1.390625 -3.9375 1.765625 -4.125 L 1.765625 -0.578125 C 1.765625 -0.34375 1.765625 -0.25 1.078125 -0.25 L 0.8125 -0.25 L 0.8125 0 C 0.9375 0 1.796875 -0.03125 2.046875 -0.03125 C 2.265625 -0.03125 3.140625 0 3.296875 0 L 3.296875 -0.25 L 3.03125 -0.25 C 2.328125 -0.25 2.328125 -0.34375 2.328125 -0.578125 Z M 2.328125 -4.4375 "
           id="path1650" />
      </symbol>
      <symbol
         overflow="visible"
         id="symbol5376">
        <path
           style="stroke:none;"
           d="M 3.6875 -1.140625 L 3.6875 -1.390625 L 2.90625 -1.390625 L 2.90625 -4.5 C 2.90625 -4.640625 2.90625 -4.703125 2.765625 -4.703125 C 2.671875 -4.703125 2.640625 -4.703125 2.578125 -4.59375 L 0.265625 -1.390625 L 0.265625 -1.140625 L 2.328125 -1.140625 L 2.328125 -0.578125 C 2.328125 -0.328125 2.328125 -0.25 1.75 -0.25 L 1.5625 -0.25 L 1.5625 0 C 1.921875 -0.015625 2.359375 -0.03125 2.609375 -0.03125 C 2.875 -0.03125 3.3125 -0.015625 3.671875 0 L 3.671875 -0.25 L 3.484375 -0.25 C 2.90625 -0.25 2.90625 -0.328125 2.90625 -0.578125 L 2.90625 -1.140625 Z M 2.375 -3.9375 L 2.375 -1.390625 L 0.53125 -1.390625 Z M 2.375 -3.9375 "
           id="path3710" />
      </symbol>
    </g>
    <g
       id="g4775">
      <symbol
         overflow="visible"
         id="symbol2995">
        <path
           style="stroke:none;"
           d=""
           id="path586" />
      </symbol>
      <symbol
         overflow="visible"
         id="symbol4218">
        <path
           style="stroke:none;"
           d="M 3.515625 -1.265625 L 3.28125 -1.265625 C 3.265625 -1.109375 3.1875 -0.703125 3.09375 -0.640625 C 3.046875 -0.59375 2.515625 -0.59375 2.40625 -0.59375 L 1.125 -0.59375 C 1.859375 -1.234375 2.109375 -1.4375 2.515625 -1.765625 C 3.03125 -2.171875 3.515625 -2.609375 3.515625 -3.265625 C 3.515625 -4.109375 2.78125 -4.625 1.890625 -4.625 C 1.03125 -4.625 0.4375 -4.015625 0.4375 -3.375 C 0.4375 -3.03125 0.734375 -2.984375 0.8125 -2.984375 C 0.96875 -2.984375 1.171875 -3.109375 1.171875 -3.359375 C 1.171875 -3.484375 1.125 -3.734375 0.765625 -3.734375 C 0.984375 -4.21875 1.453125 -4.375 1.78125 -4.375 C 2.484375 -4.375 2.84375 -3.828125 2.84375 -3.265625 C 2.84375 -2.65625 2.40625 -2.1875 2.1875 -1.9375 L 0.515625 -0.265625 C 0.4375 -0.203125 0.4375 -0.1875 0.4375 0 L 3.3125 0 Z M 3.515625 -1.265625 "
           id="path551" />
      </symbol>
      <symbol
         overflow="visible"
         id="symbol7344">
        <path
           style="stroke:none;"
           d="M 1.078125 -3.890625 C 1.4375 -3.796875 1.640625 -3.796875 1.75 -3.796875 C 2.671875 -3.796875 3.21875 -4.421875 3.21875 -4.53125 C 3.21875 -4.609375 3.171875 -4.625 3.140625 -4.625 C 3.125 -4.625 3.109375 -4.625 3.078125 -4.609375 C 2.90625 -4.546875 2.546875 -4.40625 2.03125 -4.40625 C 1.828125 -4.40625 1.46875 -4.421875 1.015625 -4.59375 C 0.9375 -4.625 0.921875 -4.625 0.921875 -4.625 C 0.828125 -4.625 0.828125 -4.546875 0.828125 -4.4375 L 0.828125 -2.390625 C 0.828125 -2.265625 0.828125 -2.1875 0.9375 -2.1875 C 1 -2.1875 1.015625 -2.1875 1.078125 -2.28125 C 1.375 -2.65625 1.8125 -2.71875 2.046875 -2.71875 C 2.46875 -2.71875 2.65625 -2.390625 2.6875 -2.328125 C 2.8125 -2.09375 2.859375 -1.828125 2.859375 -1.421875 C 2.859375 -1.21875 2.859375 -0.8125 2.640625 -0.5 C 2.46875 -0.25 2.171875 -0.078125 1.828125 -0.078125 C 1.375 -0.078125 0.90625 -0.328125 0.734375 -0.796875 C 1 -0.78125 1.140625 -0.953125 1.140625 -1.140625 C 1.140625 -1.4375 0.875 -1.484375 0.78125 -1.484375 C 0.78125 -1.484375 0.4375 -1.484375 0.4375 -1.109375 C 0.4375 -0.484375 1.015625 0.140625 1.84375 0.140625 C 2.734375 0.140625 3.515625 -0.515625 3.515625 -1.40625 C 3.515625 -2.1875 2.921875 -2.90625 2.0625 -2.90625 C 1.75 -2.90625 1.390625 -2.84375 1.078125 -2.578125 Z M 1.078125 -3.890625 "
           id="path7167" />
      </symbol>
    </g>
    <g
       id="g711">
      <symbol
         overflow="visible"
         id="symbol7171">
        <path
           style="stroke:none;"
           d=""
           id="path4998" />
      </symbol>
      <symbol
         overflow="visible"
         id="symbol6946">
        <path
           style="stroke:none;"
           d="M 1.90625 -2.328125 C 2.453125 -2.328125 2.84375 -1.953125 2.84375 -1.203125 C 2.84375 -0.34375 2.328125 -0.078125 1.9375 -0.078125 C 1.65625 -0.078125 1.03125 -0.15625 0.75 -0.578125 C 1.078125 -0.578125 1.15625 -0.8125 1.15625 -0.96875 C 1.15625 -1.1875 0.984375 -1.34375 0.765625 -1.34375 C 0.578125 -1.34375 0.375 -1.21875 0.375 -0.9375 C 0.375 -0.28125 1.09375 0.140625 1.9375 0.140625 C 2.90625 0.140625 3.578125 -0.515625 3.578125 -1.203125 C 3.578125 -1.75 3.140625 -2.296875 2.375 -2.453125 C 3.09375 -2.71875 3.359375 -3.234375 3.359375 -3.671875 C 3.359375 -4.21875 2.734375 -4.625 1.953125 -4.625 C 1.1875 -4.625 0.59375 -4.25 0.59375 -3.6875 C 0.59375 -3.453125 0.75 -3.328125 0.953125 -3.328125 C 1.171875 -3.328125 1.3125 -3.484375 1.3125 -3.671875 C 1.3125 -3.875 1.171875 -4.03125 0.953125 -4.046875 C 1.203125 -4.34375 1.671875 -4.421875 1.9375 -4.421875 C 2.25 -4.421875 2.6875 -4.265625 2.6875 -3.671875 C 2.6875 -3.375 2.59375 -3.046875 2.40625 -2.84375 C 2.1875 -2.578125 1.984375 -2.5625 1.640625 -2.53125 C 1.46875 -2.515625 1.453125 -2.515625 1.421875 -2.515625 C 1.40625 -2.515625 1.34375 -2.5 1.34375 -2.421875 C 1.34375 -2.328125 1.40625 -2.328125 1.53125 -2.328125 Z M 1.90625 -2.328125 "
           id="path3460" />
      </symbol>
      <symbol
         overflow="visible"
         id="symbol4412">
        <path
           style="stroke:none;"
           d="M 1.078125 -3.890625 C 1.4375 -3.796875 1.640625 -3.796875 1.75 -3.796875 C 2.671875 -3.796875 3.21875 -4.421875 3.21875 -4.53125 C 3.21875 -4.609375 3.171875 -4.625 3.140625 -4.625 C 3.125 -4.625 3.109375 -4.625 3.078125 -4.609375 C 2.90625 -4.546875 2.546875 -4.40625 2.03125 -4.40625 C 1.828125 -4.40625 1.46875 -4.421875 1.015625 -4.59375 C 0.9375 -4.625 0.921875 -4.625 0.921875 -4.625 C 0.828125 -4.625 0.828125 -4.546875 0.828125 -4.4375 L 0.828125 -2.390625 C 0.828125 -2.265625 0.828125 -2.1875 0.9375 -2.1875 C 1 -2.1875 1.015625 -2.1875 1.078125 -2.28125 C 1.375 -2.65625 1.8125 -2.71875 2.046875 -2.71875 C 2.46875 -2.71875 2.65625 -2.390625 2.6875 -2.328125 C 2.8125 -2.09375 2.859375 -1.828125 2.859375 -1.421875 C 2.859375 -1.21875 2.859375 -0.8125 2.640625 -0.5 C 2.46875 -0.25 2.171875 -0.078125 1.828125 -0.078125 C 1.375 -0.078125 0.90625 -0.328125 0.734375 -0.796875 C 1 -0.78125 1.140625 -0.953125 1.140625 -1.140625 C 1.140625 -1.4375 0.875 -1.484375 0.78125 -1.484375 C 0.78125 -1.484375 0.4375 -1.484375 0.4375 -1.109375 C 0.4375 -0.484375 1.015625 0.140625 1.84375 0.140625 C 2.734375 0.140625 3.515625 -0.515625 3.515625 -1.40625 C 3.515625 -2.1875 2.921875 -2.90625 2.0625 -2.90625 C 1.75 -2.90625 1.390625 -2.84375 1.078125 -2.578125 Z M 1.078125 -3.890625 "
           id="path5930" />
      </symbol>
    </g>
    <g
       id="g671">
      <symbol
         overflow="visible"
         id="symbol9204">
        <path
           style="stroke:none;"
           d=""
           id="path1492" />
      </symbol>
      <symbol
         overflow="visible"
         id="symbol4253">
        <path
           style="stroke:none;"
           d="M 1.90625 -2.328125 C 2.453125 -2.328125 2.84375 -1.953125 2.84375 -1.203125 C 2.84375 -0.34375 2.328125 -0.078125 1.9375 -0.078125 C 1.65625 -0.078125 1.03125 -0.15625 0.75 -0.578125 C 1.078125 -0.578125 1.15625 -0.8125 1.15625 -0.96875 C 1.15625 -1.1875 0.984375 -1.34375 0.765625 -1.34375 C 0.578125 -1.34375 0.375 -1.21875 0.375 -0.9375 C 0.375 -0.28125 1.09375 0.140625 1.9375 0.140625 C 2.90625 0.140625 3.578125 -0.515625 3.578125 -1.203125 C 3.578125 -1.75 3.140625 -2.296875 2.375 -2.453125 C 3.09375 -2.71875 3.359375 -3.234375 3.359375 -3.671875 C 3.359375 -4.21875 2.734375 -4.625 1.953125 -4.625 C 1.1875 -4.625 0.59375 -4.25 0.59375 -3.6875 C 0.59375 -3.453125 0.75 -3.328125 0.953125 -3.328125 C 1.171875 -3.328125 1.3125 -3.484375 1.3125 -3.671875 C 1.3125 -3.875 1.171875 -4.03125 0.953125 -4.046875 C 1.203125 -4.34375 1.671875 -4.421875 1.9375 -4.421875 C 2.25 -4.421875 2.6875 -4.265625 2.6875 -3.671875 C 2.6875 -3.375 2.59375 -3.046875 2.40625 -2.84375 C 2.1875 -2.578125 1.984375 -2.5625 1.640625 -2.53125 C 1.46875 -2.515625 1.453125 -2.515625 1.421875 -2.515625 C 1.40625 -2.515625 1.34375 -2.5 1.34375 -2.421875 C 1.34375 -2.328125 1.40625 -2.328125 1.53125 -2.328125 Z M 1.90625 -2.328125 "
           id="path6955" />
      </symbol>
      <symbol
         overflow="visible"
         id="symbol2005">
        <path
           style="stroke:none;"
           d="M 3.6875 -1.140625 L 3.6875 -1.390625 L 2.90625 -1.390625 L 2.90625 -4.5 C 2.90625 -4.640625 2.90625 -4.703125 2.765625 -4.703125 C 2.671875 -4.703125 2.640625 -4.703125 2.578125 -4.59375 L 0.265625 -1.390625 L 0.265625 -1.140625 L 2.328125 -1.140625 L 2.328125 -0.578125 C 2.328125 -0.328125 2.328125 -0.25 1.75 -0.25 L 1.5625 -0.25 L 1.5625 0 C 1.921875 -0.015625 2.359375 -0.03125 2.609375 -0.03125 C 2.875 -0.03125 3.3125 -0.015625 3.671875 0 L 3.671875 -0.25 L 3.484375 -0.25 C 2.90625 -0.25 2.90625 -0.328125 2.90625 -0.578125 L 2.90625 -1.140625 Z M 2.375 -3.9375 L 2.375 -1.390625 L 0.53125 -1.390625 Z M 2.375 -3.9375 "
           id="path7494" />
      </symbol>
    </g>
    <g
       id="g2899">
      <symbol
         overflow="visible"
         id="symbol732">
        <path
           style="stroke:none;"
           d=""
           id="path8489" />
      </symbol>
      <symbol
         overflow="visible"
         id="symbol1377">
        <path
           style="stroke:none;"
           d="M 3.6875 -1.140625 L 3.6875 -1.390625 L 2.90625 -1.390625 L 2.90625 -4.5 C 2.90625 -4.640625 2.90625 -4.703125 2.765625 -4.703125 C 2.671875 -4.703125 2.640625 -4.703125 2.578125 -4.59375 L 0.265625 -1.390625 L 0.265625 -1.140625 L 2.328125 -1.140625 L 2.328125 -0.578125 C 2.328125 -0.328125 2.328125 -0.25 1.75 -0.25 L 1.5625 -0.25 L 1.5625 0 C 1.921875 -0.015625 2.359375 -0.03125 2.609375 -0.03125 C 2.875 -0.03125 3.3125 -0.015625 3.671875 0 L 3.671875 -0.25 L 3.484375 -0.25 C 2.90625 -0.25 2.90625 -0.328125 2.90625 -0.578125 L 2.90625 -1.140625 Z M 2.375 -3.9375 L 2.375 -1.390625 L 0.53125 -1.390625 Z M 2.375 -3.9375 "
           id="path1357" />
      </symbol>
      <symbol
         overflow="visible"
         id="symbol467">
        <path
           style="stroke:none;"
           d="M 1.90625 -2.328125 C 2.453125 -2.328125 2.84375 -1.953125 2.84375 -1.203125 C 2.84375 -0.34375 2.328125 -0.078125 1.9375 -0.078125 C 1.65625 -0.078125 1.03125 -0.15625 0.75 -0.578125 C 1.078125 -0.578125 1.15625 -0.8125 1.15625 -0.96875 C 1.15625 -1.1875 0.984375 -1.34375 0.765625 -1.34375 C 0.578125 -1.34375 0.375 -1.21875 0.375 -0.9375 C 0.375 -0.28125 1.09375 0.140625 1.9375 0.140625 C 2.90625 0.140625 3.578125 -0.515625 3.578125 -1.203125 C 3.578125 -1.75 3.140625 -2.296875 2.375 -2.453125 C 3.09375 -2.71875 3.359375 -3.234375 3.359375 -3.671875 C 3.359375 -4.21875 2.734375 -4.625 1.953125 -4.625 C 1.1875 -4.625 0.59375 -4.25 0.59375 -3.6875 C 0.59375 -3.453125 0.75 -3.328125 0.953125 -3.328125 C 1.171875 -3.328125 1.3125 -3.484375 1.3125 -3.671875 C 1.3125 -3.875 1.171875 -4.03125 0.953125 -4.046875 C 1.203125 -4.34375 1.671875 -4.421875 1.9375 -4.421875 C 2.25 -4.421875 2.6875 -4.265625 2.6875 -3.671875 C 2.6875 -3.375 2.59375 -3.046875 2.40625 -2.84375 C 2.1875 -2.578125 1.984375 -2.5625 1.640625 -2.53125 C 1.46875 -2.515625 1.453125 -2.515625 1.421875 -2.515625 C 1.40625 -2.515625 1.34375 -2.5 1.34375 -2.421875 C 1.34375 -2.328125 1.40625 -2.328125 1.53125 -2.328125 Z M 1.90625 -2.328125 "
           id="path9023" />
      </symbol>
    </g>
    <g
       id="g4426">
      <symbol
         overflow="visible"
         id="symbol8847">
        <path
           style="stroke:none;"
           d=""
           id="path5891" />
      </symbol>
      <symbol
         overflow="visible"
         id="symbol1027">
        <path
           style="stroke:none;"
           d="M 1.078125 -3.890625 C 1.4375 -3.796875 1.640625 -3.796875 1.75 -3.796875 C 2.671875 -3.796875 3.21875 -4.421875 3.21875 -4.53125 C 3.21875 -4.609375 3.171875 -4.625 3.140625 -4.625 C 3.125 -4.625 3.109375 -4.625 3.078125 -4.609375 C 2.90625 -4.546875 2.546875 -4.40625 2.03125 -4.40625 C 1.828125 -4.40625 1.46875 -4.421875 1.015625 -4.59375 C 0.9375 -4.625 0.921875 -4.625 0.921875 -4.625 C 0.828125 -4.625 0.828125 -4.546875 0.828125 -4.4375 L 0.828125 -2.390625 C 0.828125 -2.265625 0.828125 -2.1875 0.9375 -2.1875 C 1 -2.1875 1.015625 -2.1875 1.078125 -2.28125 C 1.375 -2.65625 1.8125 -2.71875 2.046875 -2.71875 C 2.46875 -2.71875 2.65625 -2.390625 2.6875 -2.328125 C 2.8125 -2.09375 2.859375 -1.828125 2.859375 -1.421875 C 2.859375 -1.21875 2.859375 -0.8125 2.640625 -0.5 C 2.46875 -0.25 2.171875 -0.078125 1.828125 -0.078125 C 1.375 -0.078125 0.90625 -0.328125 0.734375 -0.796875 C 1 -0.78125 1.140625 -0.953125 1.140625 -1.140625 C 1.140625 -1.4375 0.875 -1.484375 0.78125 -1.484375 C 0.78125 -1.484375 0.4375 -1.484375 0.4375 -1.109375 C 0.4375 -0.484375 1.015625 0.140625 1.84375 0.140625 C 2.734375 0.140625 3.515625 -0.515625 3.515625 -1.40625 C 3.515625 -2.1875 2.921875 -2.90625 2.0625 -2.90625 C 1.75 -2.90625 1.390625 -2.84375 1.078125 -2.578125 Z M 1.078125 -3.890625 "
           id="path2787" />
      </symbol>
      <symbol
         overflow="visible"
         id="symbol27">
        <path
           style="stroke:none;"
           d="M 1.90625 -2.328125 C 2.453125 -2.328125 2.84375 -1.953125 2.84375 -1.203125 C 2.84375 -0.34375 2.328125 -0.078125 1.9375 -0.078125 C 1.65625 -0.078125 1.03125 -0.15625 0.75 -0.578125 C 1.078125 -0.578125 1.15625 -0.8125 1.15625 -0.96875 C 1.15625 -1.1875 0.984375 -1.34375 0.765625 -1.34375 C 0.578125 -1.34375 0.375 -1.21875 0.375 -0.9375 C 0.375 -0.28125 1.09375 0.140625 1.9375 0.140625 C 2.90625 0.140625 3.578125 -0.515625 3.578125 -1.203125 C 3.578125 -1.75 3.140625 -2.296875 2.375 -2.453125 C 3.09375 -2.71875 3.359375 -3.234375 3.359375 -3.671875 C 3.359375 -4.21875 2.734375 -4.625 1.953125 -4.625 C 1.1875 -4.625 0.59375 -4.25 0.59375 -3.6875 C 0.59375 -3.453125 0.75 -3.328125 0.953125 -3.328125 C 1.171875 -3.328125 1.3125 -3.484375 1.3125 -3.671875 C 1.3125 -3.875 1.171875 -4.03125 0.953125 -4.046875 C 1.203125 -4.34375 1.671875 -4.421875 1.9375 -4.421875 C 2.25 -4.421875 2.6875 -4.265625 2.6875 -3.671875 C 2.6875 -3.375 2.59375 -3.046875 2.40625 -2.84375 C 2.1875 -2.578125 1.984375 -2.5625 1.640625 -2.53125 C 1.46875 -2.515625 1.453125 -2.515625 1.421875 -2.515625 C 1.40625 -2.515625 1.34375 -2.5 1.34375 -2.421875 C 1.34375 -2.328125 1.40625 -2.328125 1.53125 -2.328125 Z M 1.90625 -2.328125 "
           id="path5625" />
      </symbol>
    </g>
    <g
       id="g2120">
      <symbol
         overflow="visible"
         id="symbol1235">
        <path
           style="stroke:none;"
           d=""
           id="path7230" />
      </symbol>
      <symbol
         overflow="visible"
         id="symbol7006">
        <path
           style="stroke:none;"
           d="M 1.078125 -3.890625 C 1.4375 -3.796875 1.640625 -3.796875 1.75 -3.796875 C 2.671875 -3.796875 3.21875 -4.421875 3.21875 -4.53125 C 3.21875 -4.609375 3.171875 -4.625 3.140625 -4.625 C 3.125 -4.625 3.109375 -4.625 3.078125 -4.609375 C 2.90625 -4.546875 2.546875 -4.40625 2.03125 -4.40625 C 1.828125 -4.40625 1.46875 -4.421875 1.015625 -4.59375 C 0.9375 -4.625 0.921875 -4.625 0.921875 -4.625 C 0.828125 -4.625 0.828125 -4.546875 0.828125 -4.4375 L 0.828125 -2.390625 C 0.828125 -2.265625 0.828125 -2.1875 0.9375 -2.1875 C 1 -2.1875 1.015625 -2.1875 1.078125 -2.28125 C 1.375 -2.65625 1.8125 -2.71875 2.046875 -2.71875 C 2.46875 -2.71875 2.65625 -2.390625 2.6875 -2.328125 C 2.8125 -2.09375 2.859375 -1.828125 2.859375 -1.421875 C 2.859375 -1.21875 2.859375 -0.8125 2.640625 -0.5 C 2.46875 -0.25 2.171875 -0.078125 1.828125 -0.078125 C 1.375 -0.078125 0.90625 -0.328125 0.734375 -0.796875 C 1 -0.78125 1.140625 -0.953125 1.140625 -1.140625 C 1.140625 -1.4375 0.875 -1.484375 0.78125 -1.484375 C 0.78125 -1.484375 0.4375 -1.484375 0.4375 -1.109375 C 0.4375 -0.484375 1.015625 0.140625 1.84375 0.140625 C 2.734375 0.140625 3.515625 -0.515625 3.515625 -1.40625 C 3.515625 -2.1875 2.921875 -2.90625 2.0625 -2.90625 C 1.75 -2.90625 1.390625 -2.84375 1.078125 -2.578125 Z M 1.078125 -3.890625 "
           id="path3619" />
      </symbol>
      <symbol
         overflow="visible"
         id="symbol3940">
        <path
           style="stroke:none;"
           d="M 3.515625 -1.265625 L 3.28125 -1.265625 C 3.265625 -1.109375 3.1875 -0.703125 3.09375 -0.640625 C 3.046875 -0.59375 2.515625 -0.59375 2.40625 -0.59375 L 1.125 -0.59375 C 1.859375 -1.234375 2.109375 -1.4375 2.515625 -1.765625 C 3.03125 -2.171875 3.515625 -2.609375 3.515625 -3.265625 C 3.515625 -4.109375 2.78125 -4.625 1.890625 -4.625 C 1.03125 -4.625 0.4375 -4.015625 0.4375 -3.375 C 0.4375 -3.03125 0.734375 -2.984375 0.8125 -2.984375 C 0.96875 -2.984375 1.171875 -3.109375 1.171875 -3.359375 C 1.171875 -3.484375 1.125 -3.734375 0.765625 -3.734375 C 0.984375 -4.21875 1.453125 -4.375 1.78125 -4.375 C 2.484375 -4.375 2.84375 -3.828125 2.84375 -3.265625 C 2.84375 -2.65625 2.40625 -2.1875 2.1875 -1.9375 L 0.515625 -0.265625 C 0.4375 -0.203125 0.4375 -0.1875 0.4375 0 L 3.3125 0 Z M 3.515625 -1.265625 "
           id="path3813" />
      </symbol>
    </g>
    <g
       id="g7780">
      <symbol
         overflow="visible"
         id="symbol1728">
        <path
           style="stroke:none;"
           d=""
           id="path164" />
      </symbol>
      <symbol
         overflow="visible"
         id="symbol6296">
        <path
           style="stroke:none;"
           d="M 3.6875 -1.140625 L 3.6875 -1.390625 L 2.90625 -1.390625 L 2.90625 -4.5 C 2.90625 -4.640625 2.90625 -4.703125 2.765625 -4.703125 C 2.671875 -4.703125 2.640625 -4.703125 2.578125 -4.59375 L 0.265625 -1.390625 L 0.265625 -1.140625 L 2.328125 -1.140625 L 2.328125 -0.578125 C 2.328125 -0.328125 2.328125 -0.25 1.75 -0.25 L 1.5625 -0.25 L 1.5625 0 C 1.921875 -0.015625 2.359375 -0.03125 2.609375 -0.03125 C 2.875 -0.03125 3.3125 -0.015625 3.671875 0 L 3.671875 -0.25 L 3.484375 -0.25 C 2.90625 -0.25 2.90625 -0.328125 2.90625 -0.578125 L 2.90625 -1.140625 Z M 2.375 -3.9375 L 2.375 -1.390625 L 0.53125 -1.390625 Z M 2.375 -3.9375 "
           id="path8132" />
      </symbol>
      <symbol
         overflow="visible"
         id="symbol7924">
        <path
           style="stroke:none;"
           d="M 2.328125 -4.4375 C 2.328125 -4.625 2.328125 -4.625 2.125 -4.625 C 1.671875 -4.1875 1.046875 -4.1875 0.765625 -4.1875 L 0.765625 -3.9375 C 0.921875 -3.9375 1.390625 -3.9375 1.765625 -4.125 L 1.765625 -0.578125 C 1.765625 -0.34375 1.765625 -0.25 1.078125 -0.25 L 0.8125 -0.25 L 0.8125 0 C 0.9375 0 1.796875 -0.03125 2.046875 -0.03125 C 2.265625 -0.03125 3.140625 0 3.296875 0 L 3.296875 -0.25 L 3.03125 -0.25 C 2.328125 -0.25 2.328125 -0.34375 2.328125 -0.578125 Z M 2.328125 -4.4375 "
           id="path6749" />
      </symbol>
    </g>
  </defs>
  <sodipodi:namedview
     inkscape:window-maximized="1"
     inkscape:window-y="-9"
     inkscape:window-x="2391"
     inkscape:window-height="1284"
     inkscape:window-width="2400"
     showgrid="false"
     inkscape:document-rotation="0"
     inkscape:current-layer="layer1"
     inkscape:document-units="mm"
     inkscape:cy="271.63093"
     inkscape:cx="500.82073"
     inkscape:zoom="4.1143547"
     inkscape:pageshadow="2"
     inkscape:pageopacity="0.0"
     borderopacity="1.0"
     bordercolor="#666666"
     pagecolor="#ffffff"
     id="base">
    <inkscape:grid
       type="xygrid"
       id="grid926" />
  </sodipodi:namedview>
  <metadata
     id="metadata1040">
    <rdf:RDF>
      <cc:Work
         rdf:about="">
        <dc:format>image/svg+xml</dc:format>
        <dc:type
           rdf:resource="http://purl.org/dc/dcmitype/StillImage" />
        <dc:title />
      </cc:Work>
    </rdf:RDF>
  </metadata>
  <g
     id="layer1"
     inkscape:groupmode="layer"
     inkscape:label="Layer 1">
    <g
       inkscape:label=""
       transform="translate(-3.1666667,-66.24349)"
       id="g1620">
      <g
         id="g8632">
        <g
           id="g4940"
           style="fill:#000000;fill-opacity:1">
          <use
             height="100%"
             width="100%"
             id="use9742"
             y="78.040001"
             x="93.121002"
             xlink:href="#symbol7364" />
        </g>
        <path
           id="path4136"
           transform="matrix(1,0,0,-1,93.121,79.472)"
           d="M 9.375e-5,-6.5625e-4 H 3.97275"
           style="fill:none;stroke:#000000;stroke-width:0.398;stroke-linecap:butt;stroke-linejoin:miter;stroke-miterlimit:10;stroke-opacity:1" />
        <g
           id="g9464"
           style="fill:#000000;fill-opacity:1">
          <use
             height="100%"
             width="100%"
             id="use9823"
             y="85.398003"
             x="93.121002"
             xlink:href="#symbol7364" />
        </g>
      </g>
    </g>
    <g
       inkscape:label=""
       transform="translate(-48.145833,-45.076823)"
       id="g1664">
      <g
         id="g8232">
        <g
           id="g4753"
           style="fill:#000000;fill-opacity:1">
          <use
             height="100%"
             width="100%"
             id="use5228"
             y="78.040001"
             x="93.121002"
             xlink:href="#symbol3022" />
        </g>
        <path
           id="path4208"
           transform="matrix(1,0,0,-1,93.121,79.472)"
           d="M 9.375e-5,-6.5625e-4 H 3.97275"
           style="fill:none;stroke:#000000;stroke-width:0.398;stroke-linecap:butt;stroke-linejoin:miter;stroke-miterlimit:10;stroke-opacity:1" />
        <g
           id="g4596"
           style="fill:#000000;fill-opacity:1">
          <use
             height="100%"
             width="100%"
             id="use8659"
             y="85.398003"
             x="93.121002"
             xlink:href="#symbol2777" />
        </g>
      </g>
    </g>
    <g
       inkscape:label=""
       transform="translate(41.808594,-45.077168)"
       id="g1724">
      <g
         id="g5449">
        <g
           id="g8017"
           style="fill:#000000;fill-opacity:1">
          <use
             height="100%"
             width="100%"
             id="use9755"
             y="78.040001"
             x="93.121002"
             xlink:href="#symbol4800" />
        </g>
        <path
           id="path8284"
           transform="matrix(1,0,0,-1,93.121,79.472)"
           d="M 9.375e-5,-6.5625e-4 H 3.97275"
           style="fill:none;stroke:#000000;stroke-width:0.398;stroke-linecap:butt;stroke-linejoin:miter;stroke-miterlimit:10;stroke-opacity:1" />
        <g
           id="g1371"
           style="fill:#000000;fill-opacity:1">
          <use
             height="100%"
             width="100%"
             id="use4438"
             y="85.398003"
             x="93.121002"
             xlink:href="#symbol100" />
        </g>
      </g>
    </g>
    <g
       inkscape:label=""
       transform="translate(-69.308594,-23.910157)"
       id="g1798">
      <g
         id="g6816">
        <g
           id="g1678"
           style="fill:#000000;fill-opacity:1">
          <use
             height="100%"
             width="100%"
             id="use6179"
             y="78.040001"
             x="93.121002"
             xlink:href="#symbol2595" />
        </g>
        <path
           id="path2313"
           transform="matrix(1,0,0,-1,93.121,79.472)"
           d="M 9.375e-5,-6.5625e-4 H 3.97275"
           style="fill:none;stroke:#000000;stroke-width:0.398;stroke-linecap:butt;stroke-linejoin:miter;stroke-miterlimit:10;stroke-opacity:1" />
        <g
           id="g5310"
           style="fill:#000000;fill-opacity:1">
          <use
             height="100%"
             width="100%"
             id="use1831"
             y="85.398003"
             x="93.121002"
             xlink:href="#symbol4002" />
        </g>
      </g>
    </g>
    <g
       inkscape:label=""
       transform="translate(-26.979167,-23.910157)"
       id="g1886">
      <g
         id="g9007">
        <g
           id="g6606"
           style="fill:#000000;fill-opacity:1">
          <use
             height="100%"
             width="100%"
             id="use6496"
             y="78.040001"
             x="93.121002"
             xlink:href="#symbol7740" />
        </g>
        <path
           id="path368"
           transform="matrix(1,0,0,-1,93.121,79.472)"
           d="M 9.375e-5,-6.5625e-4 H 3.97275"
           style="fill:none;stroke:#000000;stroke-width:0.398;stroke-linecap:butt;stroke-linejoin:miter;stroke-miterlimit:10;stroke-opacity:1" />
        <g
           id="g1008"
           style="fill:#000000;fill-opacity:1">
          <use
             height="100%"
             width="100%"
             id="use2730"
             y="85.398003"
             x="93.121002"
             xlink:href="#symbol6377" />
        </g>
      </g>
    </g>
    <g
       inkscape:label=""
       transform="translate(20.645833,-23.910157)"
       id="g1988">
      <g
         id="g3315">
        <g
           id="g3002"
           style="fill:#000000;fill-opacity:1">
          <use
             height="100%"
             width="100%"
             id="use8819"
             y="78.040001"
             x="93.121002"
             xlink:href="#symbol2231" />
        </g>
        <path
           id="path3853"
           transform="matrix(1,0,0,-1,93.121,79.472)"
           d="M 9.375e-5,-6.5625e-4 H 3.97275"
           style="fill:none;stroke:#000000;stroke-width:0.398;stroke-linecap:butt;stroke-linejoin:miter;stroke-miterlimit:10;stroke-opacity:1" />
        <g
           id="g7948"
           style="fill:#000000;fill-opacity:1">
          <use
             height="100%"
             width="100%"
             id="use3655"
             y="85.398003"
             x="93.121002"
             xlink:href="#symbol9844" />
        </g>
      </g>
    </g>
    <g
       inkscape:label=""
       transform="translate(61.878906,-23.910157)"
       id="g2104">
      <g
         id="g3417">
        <g
           id="g7552"
           style="fill:#000000;fill-opacity:1">
          <use
             height="100%"
             width="100%"
             id="use9502"
             y="78.040001"
             x="93.121002"
             xlink:href="#symbol4075" />
        </g>
        <path
           id="path712"
           transform="matrix(1,0,0,-1,93.121,79.472)"
           d="M 9.375e-5,-6.5625e-4 H 3.97275"
           style="fill:none;stroke:#000000;stroke-width:0.398;stroke-linecap:butt;stroke-linejoin:miter;stroke-miterlimit:10;stroke-opacity:1" />
        <g
           id="g2374"
           style="fill:#000000;fill-opacity:1">
          <use
             height="100%"
             width="100%"
             id="use9818"
             y="85.398003"
             x="93.121002"
             xlink:href="#symbol3880" />
        </g>
      </g>
    </g>
    <g
       id="g1041"
       transform="translate(-79.403048,-1.1008743)"
       inkscape:label="">
      <g
         id="g2207">
        <g
           style="fill:#000000;fill-opacity:1"
           id="g9593">
          <use
             xlink:href="#symbol4340"
             x="93.121002"
             y="78.040001"
             id="use9571"
             width="100%"
             height="100%" />
        </g>
        <path
           style="fill:none;stroke:#000000;stroke-width:0.398;stroke-linecap:butt;stroke-linejoin:miter;stroke-miterlimit:10;stroke-opacity:1"
           d="M 9.375e-5,-6.5625e-4 H 3.97275"
           transform="matrix(1,0,0,-1,93.121,79.472)"
           id="path5828" />
        <g
           style="fill:#000000;fill-opacity:1"
           id="g3620">
          <use
             xlink:href="#symbol5376"
             x="93.121002"
             y="85.398003"
             id="use4248"
             width="100%"
             height="100%" />
        </g>
      </g>
    </g>
    <g
       id="g1187"
       transform="translate(-58.232475,-1.1008743)"
       inkscape:label="">
      <g
         id="g5388">
        <g
           style="fill:#000000;fill-opacity:1"
           id="g5474">
          <use
             xlink:href="#symbol4218"
             x="93.121002"
             y="78.040001"
             id="use1745"
             width="100%"
             height="100%" />
        </g>
        <path
           style="fill:none;stroke:#000000;stroke-width:0.398;stroke-linecap:butt;stroke-linejoin:miter;stroke-miterlimit:10;stroke-opacity:1"
           d="M 9.375e-5,-6.5625e-4 H 3.97275"
           transform="matrix(1,0,0,-1,93.121,79.472)"
           id="path4961" />
        <g
           style="fill:#000000;fill-opacity:1"
           id="g6957">
          <use
             xlink:href="#symbol7344"
             x="93.121002"
             y="85.398003"
             id="use2889"
             width="100%"
             height="100%" />
        </g>
      </g>
    </g>
    <g
       id="g1347"
       transform="translate(-35.746798,-1.1008743)"
       inkscape:label="">
      <g
         id="g3130">
        <g
           style="fill:#000000;fill-opacity:1"
           id="g6977">
          <use
             xlink:href="#symbol6946"
             x="93.121002"
             y="78.040001"
             id="use5643"
             width="100%"
             height="100%" />
        </g>
        <path
           style="fill:none;stroke:#000000;stroke-width:0.398;stroke-linecap:butt;stroke-linejoin:miter;stroke-miterlimit:10;stroke-opacity:1"
           d="M 9.375e-5,-6.5625e-4 H 3.97275"
           transform="matrix(1,0,0,-1,93.121,79.472)"
           id="path3986" />
        <g
           style="fill:#000000;fill-opacity:1"
           id="g9779">
          <use
             xlink:href="#symbol4412"
             x="93.121002"
             y="85.398003"
             id="use7428"
             width="100%"
             height="100%" />
        </g>
      </g>
    </g>
    <g
       id="g1521"
       transform="translate(-15.903048,-1.1008743)"
       inkscape:label="">
      <g
         id="g7423">
        <g
           style="fill:#000000;fill-opacity:1"
           id="g774">
          <use
             xlink:href="#symbol4253"
             x="93.121002"
             y="78.040001"
             id="use213"
             width="100%"
             height="100%" />
        </g>
        <path
           style="fill:none;stroke:#000000;stroke-width:0.398;stroke-linecap:butt;stroke-linejoin:miter;stroke-miterlimit:10;stroke-opacity:1"
           d="M 9.375e-5,-6.5625e-4 H 3.97275"
           transform="matrix(1,0,0,-1,93.121,79.472)"
           id="path7846" />
        <g
           style="fill:#000000;fill-opacity:1"
           id="g5041">
          <use
             xlink:href="#symbol2005"
             x="93.121002"
             y="85.398003"
             id="use6961"
             width="100%"
             height="100%" />
        </g>
      </g>
    </g>
    <g
       id="g1709"
       transform="translate(10.555285,-1.1008743)"
       inkscape:label="">
      <g
         id="g8340">
        <g
           style="fill:#000000;fill-opacity:1"
           id="g6797">
          <use
             xlink:href="#symbol1377"
             x="93.121002"
             y="78.040001"
             id="use4618"
             width="100%"
             height="100%" />
        </g>
        <path
           style="fill:none;stroke:#000000;stroke-width:0.398;stroke-linecap:butt;stroke-linejoin:miter;stroke-miterlimit:10;stroke-opacity:1"
           d="M 9.375e-5,-6.5625e-4 H 3.97275"
           transform="matrix(1,0,0,-1,93.121,79.472)"
           id="path1871" />
        <g
           style="fill:#000000;fill-opacity:1"
           id="g8004">
          <use
             xlink:href="#symbol467"
             x="93.121002"
             y="85.398003"
             id="use960"
             width="100%"
             height="100%" />
        </g>
      </g>
    </g>
    <g
       id="g1911"
       transform="translate(31.729765,-1.1008743)"
       inkscape:label="">
      <g
         id="g42"
         transform="translate(-0.00390667)">
        <g
           style="fill:#000000;fill-opacity:1"
           id="g3613">
          <use
             xlink:href="#symbol1027"
             x="93.121002"
             y="78.040001"
             id="use3036"
             width="100%"
             height="100%" />
        </g>
        <path
           style="fill:none;stroke:#000000;stroke-width:0.398;stroke-linecap:butt;stroke-linejoin:miter;stroke-miterlimit:10;stroke-opacity:1"
           d="M 9.375e-5,-6.5625e-4 H 3.97275"
           transform="matrix(1,0,0,-1,93.121,79.472)"
           id="path6238" />
        <g
           style="fill:#000000;fill-opacity:1"
           id="g4544">
          <use
             xlink:href="#symbol27"
             x="93.121002"
             y="85.398003"
             id="use5385"
             width="100%"
             height="100%" />
        </g>
      </g>
    </g>
    <g
       id="g2127"
       transform="translate(52.892525,-1.1008743)"
       inkscape:label="">
      <g
         id="g1005">
        <g
           style="fill:#000000;fill-opacity:1"
           id="g1902">
          <use
             xlink:href="#symbol7006"
             x="93.121002"
             y="78.040001"
             id="use3370"
             width="100%"
             height="100%" />
        </g>
        <path
           style="fill:none;stroke:#000000;stroke-width:0.398;stroke-linecap:butt;stroke-linejoin:miter;stroke-miterlimit:10;stroke-opacity:1"
           d="M 9.375e-5,-6.5625e-4 H 3.97275"
           transform="matrix(1,0,0,-1,93.121,79.472)"
           id="path2714" />
        <g
           style="fill:#000000;fill-opacity:1"
           id="g5231">
          <use
             xlink:href="#symbol3940"
             x="93.121002"
             y="85.398003"
             id="use745"
             width="100%"
             height="100%" />
        </g>
      </g>
    </g>
    <g
       id="g2357"
       transform="translate(72.732368,-1.0222606)"
       inkscape:label="">
      <g
         id="g5415">
        <g
           style="fill:#000000;fill-opacity:1"
           id="g1903">
          <use
             xlink:href="#symbol6296"
             x="93.121002"
             y="78.040001"
             id="use5336"
             width="100%"
             height="100%" />
        </g>
        <path
           style="fill:none;stroke:#000000;stroke-width:0.398;stroke-linecap:butt;stroke-linejoin:miter;stroke-miterlimit:10;stroke-opacity:1"
           d="M 9.375e-5,-6.5625e-4 H 3.97275"
           transform="matrix(1,0,0,-1,93.121,79.472)"
           id="path5855" />
        <g
           style="fill:#000000;fill-opacity:1"
           id="g262">
          <use
             xlink:href="#symbol7924"
             x="93.121002"
             y="85.398003"
             id="use3630"
             width="100%"
             height="100%" />
        </g>
      </g>
    </g>
    <path
       style="fill:none;stroke:#000000;stroke-width:0.264583px;stroke-linecap:butt;stroke-linejoin:miter;stroke-opacity:1"
       d="M 84.430424,17.904506 57.984318,29.731335"
       id="path2378" />
    <path
       id="path2378-5"
       d="M 99.896866,17.411644 126.29125,29.238629"
       style="fill:none;stroke:#000000;stroke-width:0.264326px;stroke-linecap:butt;stroke-linejoin:miter;stroke-opacity:1" />
    <path
       style="fill:none;stroke:#000000;stroke-width:0.264583px;stroke-linecap:butt;stroke-linejoin:miter;stroke-opacity:1"
       d="m 40.408336,42.050951 -6.734723,7.063245"
       id="path2395" />
    <path
       style="fill:none;stroke:#000000;stroke-width:0.264583px;stroke-linecap:butt;stroke-linejoin:miter;stroke-opacity:1"
       d="m 55.684657,41.722428 6.570462,6.570459"
       id="path2397" />
    <path
       style="fill:none;stroke:#000000;stroke-width:0.264583px;stroke-linecap:butt;stroke-linejoin:miter;stroke-opacity:1"
       d="m 143.40031,40.901119 6.89898,6.4062"
       id="path2401" />
    <path
       id="path2395-3"
       d="m 130.50578,40.326205 -6.73472,7.063245"
       style="fill:none;stroke:#000000;stroke-width:0.264583px;stroke-linecap:butt;stroke-linejoin:miter;stroke-opacity:1" />
    <path
       style="fill:none;stroke:#000000;stroke-width:0.264583px;stroke-linecap:butt;stroke-linejoin:miter;stroke-opacity:1"
       d="m 22.832352,63.569209 -4.599323,6.734723"
       id="path2418" />
    <path
       style="fill:none;stroke:#000000;stroke-width:0.264583px;stroke-linecap:butt;stroke-linejoin:miter;stroke-opacity:1"
       d="m 29.402812,63.569209 4.270801,6.734723"
       id="path2420" />
    <path
       id="path2418-5"
       d="m 65.374849,63.322818 -4.599323,6.734723"
       style="fill:none;stroke:#000000;stroke-width:0.264583px;stroke-linecap:butt;stroke-linejoin:miter;stroke-opacity:1" />
    <path
       id="path2420-8"
       d="m 71.94531,63.322818 4.270801,6.734723"
       style="fill:none;stroke:#000000;stroke-width:0.264583px;stroke-linecap:butt;stroke-linejoin:miter;stroke-opacity:1" />
    <path
       id="path2418-7"
       d="m 113.01069,63.487079 -4.59932,6.734723"
       style="fill:none;stroke:#000000;stroke-width:0.264583px;stroke-linecap:butt;stroke-linejoin:miter;stroke-opacity:1" />
    <path
       id="path2420-2"
       d="m 119.58115,63.487079 4.2708,6.734723"
       style="fill:none;stroke:#000000;stroke-width:0.264583px;stroke-linecap:butt;stroke-linejoin:miter;stroke-opacity:1" />
    <path
       id="path2418-9"
       d="m 154.89738,63.651341 -4.59933,6.734723"
       style="fill:none;stroke:#000000;stroke-width:0.264583px;stroke-linecap:butt;stroke-linejoin:miter;stroke-opacity:1" />
    <path
       id="path2420-29"
       d="m 161.46784,63.651341 4.2708,6.734723"
       style="fill:none;stroke:#000000;stroke-width:0.264583px;stroke-linecap:butt;stroke-linejoin:miter;stroke-opacity:1" />
    <text
       xml:space="preserve"
       style="font-style:normal;font-weight:normal;font-size:6.35px;line-height:1.25;font-family:sans-serif;letter-spacing:0px;word-spacing:0px;fill:#000000;fill-opacity:1;stroke:none;stroke-width:0.264583"
       x="-95.499214"
       y="93.590431"
       id="text2458"
       transform="rotate(-90)"><tspan
         sodipodi:role="line"
         id="tspan2456"
         x="-95.499214"
         y="93.590431"
         style="font-size:6.35px;stroke-width:0.264583">...</tspan></text>
    <path
       style="fill:none;stroke:#000000;stroke-width:0.265;stroke-linecap:butt;stroke-linejoin:miter;stroke-miterlimit:4;stroke-dasharray:0.265, 0.53;stroke-dashoffset:0;stroke-opacity:1"
       d="m 16.581866,87.364371 c 3.027034,-8.484881 6.053938,-16.969398 8.903211,-16.403882 2.849273,0.565516 5.520484,10.181028 8.796014,13.552157 3.27553,3.371128 7.15529,0.498083 7.017943,-4.854441 -0.137347,-5.352525 -4.291912,-13.184445 -3.960116,-20.057396 0.331797,-6.87295 5.150039,-12.786246 9.94119,-13.30624 4.791152,-0.519993 9.55464,4.353002 10.594779,10.731848 1.040139,6.378846 -1.642746,14.263241 -2.119185,19.881382 -0.47644,5.618141 1.297965,9.056049 3.405909,8.782117 2.107943,-0.273932 4.571816,-4.216128 6.214441,-8.322641 1.642626,-4.106514 2.463917,-8.377228 3.695966,-7.993845 1.23205,0.383383 2.874632,5.420634 4.681563,9.746222 1.80693,4.325589 3.77803,7.939271 6.132365,7.528452 2.354334,-0.41082 5.091971,-4.845792 4.517111,-11.38884 C 83.828198,68.716216 79.940754,60.065283 74.793897,52.974567 69.64704,45.88385 63.240969,40.353824 65.732312,35.425786 c 2.491344,-4.928038 13.879916,-9.253505 25.378428,-9.499778 11.49851,-0.246273 23.10609,3.586418 25.98044,9.335615 2.87434,5.749196 -2.9842,13.414584 -7.28242,21.162388 -4.29821,7.747804 -7.03585,15.577447 -7.41899,21.189828 -0.38314,5.61238 1.58795,9.007051 3.8054,8.787873 2.21744,-0.219178 4.68131,-4.051866 6.40607,-8.432156 1.72476,-4.380289 2.71031,-9.308037 4.05187,-9.061533 1.34155,0.246505 3.03889,5.667024 4.90058,10.102117 1.86169,4.435093 3.88754,7.884517 6.21449,7.364197 2.32695,-0.52032 4.95509,-5.010049 3.9696,-10.567518 -0.98548,-5.55747 -5.58472,-12.182556 -5.44789,-17.795024 0.13683,-5.612468 5.00983,-10.211697 9.96524,-10.321035 4.95541,-0.109339 9.99266,4.270879 10.75707,9.844427 0.7644,5.573548 -2.74359,12.340078 -3.38783,17.983264 -0.64424,5.643185 1.57515,10.162143 3.68918,10.248874 2.11403,0.08673 4.12271,-4.258669 5.87815,-8.547432 1.75545,-4.288763 3.25759,-8.520764 5.58373,-6.917508 2.32613,1.603256 5.47589,9.041478 8.62557,16.479525"
       id="path2482"
       inkscape:path-effect="#path-effect2484"
       inkscape:original-d="m 16.581866,87.364371 c 3.027352,-8.484767 6.054256,-16.969284 9.081079,-25.454579 2.671582,9.616164 5.342793,19.231676 8.013793,28.847118 3.880103,-2.872839 7.759863,-5.745884 11.639515,-8.619309 -4.154469,-7.831972 -8.309034,-15.663893 -12.463949,-23.496238 4.8187,-5.913268 9.636942,-11.826565 14.455015,-17.740244 4.763945,4.873453 9.527432,9.746449 14.290752,14.619277 -2.682727,7.884975 -5.365612,15.76937 -8.048815,23.65366 1.752422,3.340314 3.504512,6.78974 5.256371,10.184212 2.464236,-3.942091 4.928108,-7.884287 7.391767,-11.826827 0.82159,-4.270621 1.64288,-8.541335 2.463922,-12.812401 1.642914,5.03772 3.285495,10.074971 4.927846,15.112061 1.971442,3.614089 3.942543,7.227771 5.913416,10.84126 2.738012,-4.434885 5.475648,-8.869858 8.213077,-13.305184 C 83.828317,68.716162 79.940874,60.065229 76.053087,51.413856 69.647021,45.883872 63.240951,40.353845 56.834486,34.823442 68.223777,30.498068 79.612349,26.172601 91.000883,21.846783 c 11.608317,3.83311 23.215897,7.665802 34.823447,11.498307 -5.85851,7.665956 -11.71706,15.33134 -17.57598,22.996612 -2.73749,7.830222 -5.47513,15.659865 -8.21308,23.489399 1.97144,3.39507 3.94254,6.78974 5.91341,10.184215 2.46424,-3.832583 4.92811,-7.665273 7.39177,-11.498308 0.98586,-4.927679 1.97141,-9.855427 2.95671,-14.783538 1.69767,5.421006 3.395,10.841527 5.09211,16.261892 2.02619,3.449826 4.05204,6.899249 6.07767,10.348476 2.6285,-4.48964 5.25664,-8.979366 7.88456,-13.469445 -4.59915,-6.625082 -9.19839,-13.250164 -13.79797,-19.875645 4.87345,-4.599149 9.74644,-9.19838 14.61927,-13.797968 5.03772,4.380661 10.07497,8.76088 15.11206,13.140922 -3.50794,6.767197 -7.01594,13.533724 -10.5244,20.30039 2.21978,4.519492 4.43916,9.038452 6.65842,13.557413 2.00902,-4.345302 4.0177,-8.690701 6.02615,-13.036445 1.50244,-4.231816 3.00458,-8.463819 4.50652,-12.696249 3.15014,7.438776 6.2999,14.876996 9.44945,22.315099"
       sodipodi:nodetypes="cccccccccccccccccccccccccccccccccc" />
    <path
       style="fill:none;stroke:#000000;stroke-width:0.0874677px;stroke-linecap:butt;stroke-linejoin:miter;stroke-opacity:1"
       d="m 15.136273,88.50669 1.445593,-1.142319 v 0 l 1.463661,1.152519"
       id="path2486"
       sodipodi:nodetypes="cccc" />
    <path
       sodipodi:nodetypes="cccc"
       id="path2486-8"
       d="m 24.939433,69.650353 1.091848,1.484082 v 0 l -1.20225,1.423094"
       style="fill:none;stroke:#000000;stroke-width:0.0874678px;stroke-linecap:butt;stroke-linejoin:miter;stroke-opacity:1" />
    <path
       sodipodi:nodetypes="cccc"
       id="path2486-26"
       d="m 36.375715,85.287136 1.724084,0.649742 v 0 l -0.232951,1.848334"
       style="fill:none;stroke:#000000;stroke-width:0.0874678px;stroke-linecap:butt;stroke-linejoin:miter;stroke-opacity:1" />
    <path
       sodipodi:nodetypes="cccc"
       id="path2486-4"
       d="m 47.63547,44.644836 0.897638,1.608999 v 0 l -1.370814,1.261536"
       style="fill:none;stroke:#000000;stroke-width:0.0874678px;stroke-linecap:butt;stroke-linejoin:miter;stroke-opacity:1" />
    <path
       sodipodi:nodetypes="cccc"
       id="path2486-0"
       d="m 58.344549,84.741082 1.740416,0.604635 v 0 l -0.18475,1.853772"
       style="fill:none;stroke:#000000;stroke-width:0.0874678px;stroke-linecap:butt;stroke-linejoin:miter;stroke-opacity:1" />
    <path
       sodipodi:nodetypes="cccc"
       id="path2486-2"
       d="m 68.120086,68.053088 1.207307,1.391776 v 0 l -1.084298,1.514894"
       style="fill:none;stroke:#000000;stroke-width:0.0874678px;stroke-linecap:butt;stroke-linejoin:miter;stroke-opacity:1" />
    <path
       sodipodi:nodetypes="cccc"
       id="path2486-23"
       d="m 78.875758,85.596283 1.634741,0.849856 v 0 l -0.450765,1.807599"
       style="fill:none;stroke:#000000;stroke-width:0.0874678px;stroke-linecap:butt;stroke-linejoin:miter;stroke-opacity:1" />
    <path
       sodipodi:nodetypes="cccc"
       id="path2486-9"
       d="m 92.263518,24.693352 1.347027,1.257041 v 0 l -0.918909,1.620558"
       style="fill:none;stroke:#000000;stroke-width:0.0874678px;stroke-linecap:butt;stroke-linejoin:miter;stroke-opacity:1" />
    <path
       sodipodi:nodetypes="cccc"
       id="path2486-1"
       d="m 105.48356,85.104881 1.5428,1.007176 v 0 l -0.62712,1.754231"
       style="fill:none;stroke:#000000;stroke-width:0.0874678px;stroke-linecap:butt;stroke-linejoin:miter;stroke-opacity:1" />
    <path
       sodipodi:nodetypes="cccc"
       id="path2486-45"
       d="m 115.57668,67.73321 1.37517,1.226204 v 0 l -0.88196,1.640962"
       style="fill:none;stroke:#000000;stroke-width:0.0874678px;stroke-linecap:butt;stroke-linejoin:miter;stroke-opacity:1" />
    <path
       sodipodi:nodetypes="cccc"
       id="path2486-5"
       d="m 126.19418,85.35904 1.53972,1.011874 v 0 l -0.63244,1.752315"
       style="fill:none;stroke:#000000;stroke-width:0.0874678px;stroke-linecap:butt;stroke-linejoin:miter;stroke-opacity:1" />
    <path
       sodipodi:nodetypes="cccc"
       id="path2486-52"
       d="m 136.33257,46.384163 1.26887,1.335884 v 0 l -1.01484,1.562272"
       style="fill:none;stroke:#000000;stroke-width:0.0874678px;stroke-linecap:butt;stroke-linejoin:miter;stroke-opacity:1" />
    <path
       sodipodi:nodetypes="cccc"
       id="path2486-96"
       d="m 150.07202,81.088813 1.76579,-0.52595 v 0 l 0.93297,1.612508"
       style="fill:none;stroke:#000000;stroke-width:0.0874678px;stroke-linecap:butt;stroke-linejoin:miter;stroke-opacity:1" />
    <path
       sodipodi:nodetypes="cccc"
       id="path2486-7"
       d="m 156.49536,68.686212 1.35744,1.245781 v 0 l -0.90539,1.628151"
       style="fill:none;stroke:#000000;stroke-width:0.0874678px;stroke-linecap:butt;stroke-linejoin:miter;stroke-opacity:1" />
    <path
       sodipodi:nodetypes="cccc"
       id="path2486-82"
       d="M 168.07508,85.067195 167.401,86.78191 v 0 l -1.84485,-0.259088"
       style="fill:none;stroke:#000000;stroke-width:0.0874678px;stroke-linecap:butt;stroke-linejoin:miter;stroke-opacity:1" />
  </g>
</svg>
